<svg width="37" height="32" viewBox="0 0 37 32" fill="none" xmlns="http://www.w3.org/2000/svg">
<g clip-path="url(#clip0_188_241)">
<path d="M13.2744 5.22288C13.4209 5.12053 13.6157 5.12053 13.7622 5.22288L15.6461 6.53909C15.8013 6.64747 15.8663 6.84523 15.8057 7.02451L15.094 9.13083C15.0355 9.30387 14.8732 9.42036 14.6905 9.42036H12.346C12.1634 9.42036 12.001 9.30387 11.9426 9.13083L11.2308 7.02451C11.1703 6.84523 11.2353 6.64747 11.3904 6.53909L13.2744 5.22288Z" fill="#D9D9D9"/>
<path d="M13.2744 5.22288C13.4209 5.12053 13.6157 5.12053 13.7622 5.22288L15.6461 6.53909C15.8013 6.64747 15.8663 6.84523 15.8057 7.02451L15.094 9.13083C15.0355 9.30387 14.8732 9.42036 14.6905 9.42036H12.346C12.1634 9.42036 12.001 9.30387 11.9426 9.13083L11.2308 7.02451C11.1703 6.84523 11.2353 6.64747 11.3904 6.53909L13.2744 5.22288Z" fill="url(#paint0_linear_188_241)"/>
<path d="M13.2744 5.22288C13.4209 5.12053 13.6157 5.12053 13.7622 5.22288L15.6461 6.53909C15.8013 6.64747 15.8663 6.84523 15.8057 7.02451L15.094 9.13083C15.0355 9.30387 14.8732 9.42036 14.6905 9.42036H12.346C12.1634 9.42036 12.001 9.30387 11.9426 9.13083L11.2308 7.02451C11.1703 6.84523 11.2353 6.64747 11.3904 6.53909L13.2744 5.22288Z" stroke="#D9D9D9" stroke-width="0.121673"/>
<path d="M12.9878 2.13484C13.305 1.90834 13.7311 1.90834 14.0483 2.13484L18.4997 5.3131C18.8251 5.54545 18.9614 5.9626 18.8359 6.34224L17.1434 11.4611C17.0198 11.8348 16.6706 12.0872 16.277 12.0872H10.7591C10.3655 12.0872 10.0163 11.8348 9.89269 11.4611L8.20023 6.34224C8.0747 5.9626 8.21096 5.54545 8.53638 5.3131L12.9878 2.13484Z" stroke="#D9D9D9" stroke-width="0.365019"/>
<path d="M12.9899 3.66271C13.3063 3.43805 13.7302 3.43805 14.0466 3.66271L17.0373 5.78631C17.3644 6.01864 17.5015 6.43745 17.3749 6.81825L16.2429 10.2233C16.1189 10.5962 15.77 10.8479 15.3769 10.8479H11.6596C11.2665 10.8479 10.9176 10.5962 10.7936 10.2233L9.66163 6.81825C9.53503 6.43745 9.67205 6.01864 9.99924 5.78631L12.9899 3.66271Z" stroke="#D9D9D9" stroke-width="0.365019"/>
<path d="M12.9869 0.605164C13.3046 0.377573 13.732 0.377573 14.0497 0.605164L19.9611 4.83962C20.2855 5.07198 20.4213 5.48813 20.2964 5.8671L18.0448 12.6993C17.9215 13.0735 17.572 13.3263 17.1781 13.3263H9.85855C9.46462 13.3263 9.11516 13.0735 8.99186 12.6993L6.74026 5.8671C6.61537 5.48813 6.75117 5.07198 7.07555 4.83962L12.9869 0.605164Z" stroke="#D9D9D9" stroke-width="0.365019"/>
<path d="M7.33052 11.1587C7.47701 11.0563 7.67182 11.0563 7.81831 11.1587L9.70228 12.4749C9.85742 12.5833 9.92242 12.781 9.86184 12.9603L9.15012 15.0666C9.09165 15.2397 8.92933 15.3561 8.74667 15.3561H6.40216C6.2195 15.3561 6.05719 15.2397 5.99872 15.0666L5.287 12.9603C5.22642 12.781 5.29142 12.5833 5.44655 12.4749L7.33052 11.1587Z" fill="#D9D9D9"/>
<path d="M7.33052 11.1587C7.47701 11.0563 7.67182 11.0563 7.81831 11.1587L9.70228 12.4749C9.85742 12.5833 9.92242 12.781 9.86184 12.9603L9.15012 15.0666C9.09165 15.2397 8.92933 15.3561 8.74667 15.3561H6.40216C6.2195 15.3561 6.05719 15.2397 5.99872 15.0666L5.287 12.9603C5.22642 12.781 5.29142 12.5833 5.44655 12.4749L7.33052 11.1587Z" fill="url(#paint1_linear_188_241)"/>
<path d="M7.33052 11.1587C7.47701 11.0563 7.67182 11.0563 7.81831 11.1587L9.70228 12.4749C9.85742 12.5833 9.92242 12.781 9.86184 12.9603L9.15012 15.0666C9.09165 15.2397 8.92933 15.3561 8.74667 15.3561H6.40216C6.2195 15.3561 6.05719 15.2397 5.99872 15.0666L5.287 12.9603C5.22642 12.781 5.29142 12.5833 5.44655 12.4749L7.33052 11.1587Z" stroke="#D9D9D9" stroke-width="0.121673"/>
<path d="M7.07928 8.1199C7.37536 7.9085 7.77303 7.9085 8.06911 8.1199L12.5205 11.2982C12.8242 11.515 12.9514 11.9044 12.8342 12.2587L11.1418 17.3776C11.0265 17.7264 10.7005 17.9619 10.3331 17.9619H4.81526C4.4479 17.9619 4.12193 17.7264 4.0066 17.3776L2.31414 12.2587C2.19699 11.9044 2.32416 11.515 2.62789 11.2982L7.07928 8.1199Z" stroke="#D9D9D9" stroke-width="0.486692"/>
<path d="M7.08129 9.64811C7.3766 9.43842 7.77221 9.43842 8.06751 9.64811L11.0582 11.7717C11.3636 11.9885 11.4915 12.3794 11.3733 12.7348L10.2413 16.1399C10.1255 16.488 9.79991 16.7229 9.43306 16.7229H5.71575C5.3489 16.7229 5.02326 16.488 4.90753 16.1399L3.77551 12.7348C3.65735 12.3794 3.78524 11.9885 4.09062 11.7717L7.08129 9.64811Z" stroke="#D9D9D9" stroke-width="0.486692"/>
<path d="M7.078 6.59066C7.37454 6.37824 7.77343 6.37824 8.06997 6.59066L13.9813 10.8251C14.2841 11.042 14.4108 11.4304 14.2943 11.7841L12.0427 18.6163C11.9276 18.9655 11.6014 19.2015 11.2338 19.2015H3.91422C3.54655 19.2015 3.22038 18.9655 3.1053 18.6163L0.853705 11.7841C0.737142 11.4304 0.863889 11.042 1.16664 10.8251L7.078 6.59066Z" stroke="#D9D9D9" stroke-width="0.486692"/>
<path d="M19.9853 12.6907C20.1318 12.5883 20.3266 12.5883 20.4731 12.6907L22.3571 14.0069C22.5122 14.1152 22.5772 14.313 22.5166 14.4923L21.8049 16.5986C21.7464 16.7716 21.5841 16.8881 21.4015 16.8881H19.0569C18.8743 16.8881 18.712 16.7716 18.6535 16.5986L17.9418 14.4923C17.8812 14.313 17.9462 14.1152 18.1013 14.0069L19.9853 12.6907Z" fill="#D9D9D9"/>
<path d="M19.9853 12.6907C20.1318 12.5883 20.3266 12.5883 20.4731 12.6907L22.3571 14.0069C22.5122 14.1152 22.5772 14.313 22.5166 14.4923L21.8049 16.5986C21.7464 16.7716 21.5841 16.8881 21.4015 16.8881H19.0569C18.8743 16.8881 18.712 16.7716 18.6535 16.5986L17.9418 14.4923C17.8812 14.313 17.9462 14.1152 18.1013 14.0069L19.9853 12.6907Z" fill="url(#paint2_linear_188_241)"/>
<path d="M19.9853 12.6907C20.1318 12.5883 20.3266 12.5883 20.4731 12.6907L22.3571 14.0069C22.5122 14.1152 22.5772 14.313 22.5166 14.4923L21.8049 16.5986C21.7464 16.7716 21.5841 16.8881 21.4015 16.8881H19.0569C18.8743 16.8881 18.712 16.7716 18.6535 16.5986L17.9418 14.4923C17.8812 14.313 17.9462 14.1152 18.1013 14.0069L19.9853 12.6907Z" stroke="#D9D9D9" stroke-width="0.121673"/>
<path d="M19.7699 9.70139C20.0448 9.5051 20.4141 9.5051 20.689 9.70139L25.1404 12.8797C25.4225 13.081 25.5405 13.4425 25.4318 13.7716L23.7393 18.8905C23.6322 19.2143 23.3295 19.4331 22.9884 19.4331H17.4705C17.1294 19.4331 16.8267 19.2143 16.7196 18.8905L15.0272 13.7716C14.9184 13.4425 15.0365 13.081 15.3185 12.8797L19.7699 9.70139Z" stroke="#D9D9D9" stroke-width="0.608365"/>
<path d="M19.7713 11.2294C20.0455 11.0347 20.4129 11.0347 20.6871 11.2294L23.6777 13.353C23.9613 13.5544 24.0801 13.9174 23.9703 14.2474L22.8383 17.6524C22.7309 17.9757 22.4285 18.1938 22.0878 18.1938H18.3705C18.0299 18.1938 17.7275 17.9757 17.62 17.6524L16.488 14.2474C16.3783 13.9174 16.4971 13.5544 16.7806 13.353L19.7713 11.2294Z" stroke="#D9D9D9" stroke-width="0.608365"/>
<path d="M19.7687 8.17161C20.0441 7.97436 20.4145 7.97436 20.6898 8.17161L26.6012 12.4061C26.8823 12.6074 27 12.9681 26.8918 13.2965L24.6402 20.1288C24.5333 20.453 24.2304 20.6721 23.889 20.6721H16.5695C16.2281 20.6721 15.9252 20.453 15.8184 20.1288L13.5668 13.2965C13.4585 12.9681 13.5762 12.6074 13.8573 12.4061L19.7687 8.17161Z" stroke="#D9D9D9" stroke-width="0.608365"/>
<path d="M28.4223 8.2866C28.5688 8.18425 28.7636 8.18425 28.9101 8.2866L30.7941 9.60281C30.9492 9.71119 31.0142 9.90895 30.9536 10.0882L30.2419 12.1945C30.1834 12.3676 30.0211 12.4841 29.8385 12.4841H27.494C27.3113 12.4841 27.149 12.3676 27.0905 12.1945L26.3788 10.0882C26.3182 9.90895 26.3832 9.71119 26.5383 9.60281L28.4223 8.2866Z" fill="#D9D9D9"/>
<path d="M28.4223 8.2866C28.5688 8.18425 28.7636 8.18425 28.9101 8.2866L30.7941 9.60281C30.9492 9.71119 31.0142 9.90895 30.9536 10.0882L30.2419 12.1945C30.1834 12.3676 30.0211 12.4841 29.8385 12.4841H27.494C27.3113 12.4841 27.149 12.3676 27.0905 12.1945L26.3788 10.0882C26.3182 9.90895 26.3832 9.71119 26.5383 9.60281L28.4223 8.2866Z" fill="url(#paint3_linear_188_241)"/>
<path d="M28.4223 8.2866C28.5688 8.18425 28.7636 8.18425 28.9101 8.2866L30.7941 9.60281C30.9492 9.71119 31.0142 9.90895 30.9536 10.0882L30.2419 12.1945C30.1834 12.3676 30.0211 12.4841 29.8385 12.4841H27.494C27.3113 12.4841 27.149 12.3676 27.0905 12.1945L26.3788 10.0882C26.3182 9.90895 26.3832 9.71119 26.5383 9.60281L28.4223 8.2866Z" stroke="#D9D9D9" stroke-width="0.121673"/>
<path d="M28.2069 5.2971C28.4818 5.1008 28.8511 5.1008 29.126 5.2971L33.5774 8.47536C33.8595 8.67673 33.9776 9.03825 33.8688 9.36728L32.1763 14.4862C32.0692 14.81 31.7665 15.0288 31.4254 15.0288H25.9075C25.5664 15.0288 25.2637 14.81 25.1567 14.4862L23.4642 9.36728C23.3554 9.03825 23.4735 8.67673 23.7555 8.47536L28.2069 5.2971Z" stroke="#D9D9D9" stroke-width="0.608365"/>
<path d="M28.2078 6.8254C28.482 6.63069 28.8494 6.63069 29.1236 6.8254L32.1143 8.94899C32.3978 9.15034 32.5166 9.51331 32.4069 9.84334L31.2749 13.2484C31.1674 13.5716 30.865 13.7897 30.5244 13.7897H26.8071C26.4664 13.7897 26.164 13.5716 26.0566 13.2484L24.9245 9.84334C24.8148 9.51331 24.9336 9.15034 25.2171 8.94899L28.2078 6.8254Z" stroke="#D9D9D9" stroke-width="0.608365"/>
<path d="M28.2057 3.7678C28.4811 3.57055 28.8515 3.57055 29.1268 3.7678L35.0382 8.00225C35.3193 8.20363 35.437 8.5643 35.3288 8.89273L33.0772 15.725C32.9703 16.0492 32.6674 16.2683 32.326 16.2683H25.0065C24.6651 16.2683 24.3622 16.0492 24.2554 15.725L22.0038 8.89273C21.8955 8.5643 22.0132 8.20363 22.2944 8.00225L28.2057 3.7678Z" stroke="#D9D9D9" stroke-width="0.608365"/>
<path fill-rule="evenodd" clip-rule="evenodd" d="M35.953 14.384C35.5059 13.9376 34.9665 13.7144 34.3346 13.7144H2.28897C1.65712 13.7144 1.11766 13.9376 0.670598 14.384C0.223533 14.8304 0 15.3691 0 16.0001C0 16.631 0.223533 17.1697 0.670598 17.6161C1.11766 18.0626 1.65712 18.2858 2.28897 18.2858H2.55721L4.61371 30.1072C4.70909 30.6548 4.97136 31.1072 5.40055 31.4644C5.82973 31.8215 6.31852 32.0001 6.86692 32.0001H29.7567C30.3051 32.0001 30.7938 31.8215 31.223 31.4644C31.6522 31.1072 31.9145 30.6548 32.0099 30.1072L34.0664 18.2858H34.3346C34.9665 18.2858 35.5059 18.0626 35.953 17.6161C36.4 17.1697 36.6236 16.631 36.6236 16.0001C36.6236 15.3691 36.4 14.8304 35.953 14.384ZM9.45096 27.5983C9.24233 27.8423 8.98303 27.9763 8.67306 28.0001H8.58365C8.28561 28.0001 8.02631 27.8989 7.80576 27.6965C7.5852 27.4941 7.46301 27.2441 7.43916 26.9465L6.86692 19.5179C6.84308 19.2084 6.93547 18.9316 7.1441 18.6876C7.35273 18.4435 7.61203 18.3096 7.92199 18.2858C8.23196 18.262 8.50914 18.3542 8.75353 18.5626C8.99793 18.7709 9.13205 19.0298 9.15589 19.3394L9.72814 26.7679C9.75198 27.0774 9.65959 27.3542 9.45096 27.5983ZM16.0228 19.4286V26.8572C16.0228 27.1667 15.9096 27.4346 15.683 27.6608C15.4565 27.887 15.1883 28.0001 14.8783 28.0001C14.5684 28.0001 14.3001 27.887 14.0736 27.6608C13.8471 27.4346 13.7338 27.1667 13.7338 26.8572V19.4286C13.7338 19.1191 13.8471 18.8513 14.0736 18.6251C14.3001 18.3989 14.5684 18.2858 14.8783 18.2858C15.1883 18.2858 15.4565 18.3989 15.683 18.6251C15.9096 18.8513 16.0228 19.1191 16.0228 19.4286ZM22.8897 19.4286V26.8572C22.8897 27.1667 22.7765 27.4346 22.55 27.6608C22.3235 27.887 22.0552 28.0001 21.7452 28.0001C21.4353 28.0001 21.167 27.887 20.9405 27.6608C20.714 27.4346 20.6008 27.1667 20.6008 26.8572V19.4286C20.6008 19.1191 20.714 18.8513 20.9405 18.6251C21.167 18.3989 21.4353 18.2858 21.7452 18.2858C22.0552 18.2858 22.3235 18.3989 22.55 18.6251C22.7765 18.8513 22.8897 19.1191 22.8897 19.4286ZM29.7567 19.5179L29.1844 26.9465C29.1606 27.2441 29.0384 27.4941 28.8178 27.6965C28.5973 27.8989 28.338 28.0001 28.0399 28.0001H27.9505C27.6405 27.9763 27.3812 27.8423 27.1726 27.5983C26.964 27.3542 26.8716 27.0774 26.8954 26.7679L27.4677 19.3394C27.4915 19.0298 27.6256 18.7709 27.87 18.5626C28.1144 18.3542 28.3916 18.262 28.7016 18.2858C29.0115 18.3096 29.2708 18.4435 29.4795 18.6876C29.6881 18.9316 29.7805 19.2084 29.7567 19.5179Z" fill="#B2B2B2"/>
<path fill-rule="evenodd" clip-rule="evenodd" d="M35.953 14.384C35.5059 13.9376 34.9665 13.7144 34.3346 13.7144H2.28897C1.65712 13.7144 1.11766 13.9376 0.670598 14.384C0.223533 14.8304 0 15.3691 0 16.0001C0 16.631 0.223533 17.1697 0.670598 17.6161C1.11766 18.0626 1.65712 18.2858 2.28897 18.2858H2.55721L4.61371 30.1072C4.70909 30.6548 4.97136 31.1072 5.40055 31.4644C5.82973 31.8215 6.31852 32.0001 6.86692 32.0001H29.7567C30.3051 32.0001 30.7938 31.8215 31.223 31.4644C31.6522 31.1072 31.9145 30.6548 32.0099 30.1072L34.0664 18.2858H34.3346C34.9665 18.2858 35.5059 18.0626 35.953 17.6161C36.4 17.1697 36.6236 16.631 36.6236 16.0001C36.6236 15.3691 36.4 14.8304 35.953 14.384ZM9.45096 27.5983C9.24233 27.8423 8.98303 27.9763 8.67306 28.0001H8.58365C8.28561 28.0001 8.02631 27.8989 7.80576 27.6965C7.5852 27.4941 7.46301 27.2441 7.43916 26.9465L6.86692 19.5179C6.84308 19.2084 6.93547 18.9316 7.1441 18.6876C7.35273 18.4435 7.61203 18.3096 7.92199 18.2858C8.23196 18.262 8.50914 18.3542 8.75353 18.5626C8.99793 18.7709 9.13205 19.0298 9.15589 19.3394L9.72814 26.7679C9.75198 27.0774 9.65959 27.3542 9.45096 27.5983ZM16.0228 19.4286V26.8572C16.0228 27.1667 15.9096 27.4346 15.683 27.6608C15.4565 27.887 15.1883 28.0001 14.8783 28.0001C14.5684 28.0001 14.3001 27.887 14.0736 27.6608C13.8471 27.4346 13.7338 27.1667 13.7338 26.8572V19.4286C13.7338 19.1191 13.8471 18.8513 14.0736 18.6251C14.3001 18.3989 14.5684 18.2858 14.8783 18.2858C15.1883 18.2858 15.4565 18.3989 15.683 18.6251C15.9096 18.8513 16.0228 19.1191 16.0228 19.4286ZM22.8897 19.4286V26.8572C22.8897 27.1667 22.7765 27.4346 22.55 27.6608C22.3235 27.887 22.0552 28.0001 21.7452 28.0001C21.4353 28.0001 21.167 27.887 20.9405 27.6608C20.714 27.4346 20.6008 27.1667 20.6008 26.8572V19.4286C20.6008 19.1191 20.714 18.8513 20.9405 18.6251C21.167 18.3989 21.4353 18.2858 21.7452 18.2858C22.0552 18.2858 22.3235 18.3989 22.55 18.6251C22.7765 18.8513 22.8897 19.1191 22.8897 19.4286ZM29.7567 19.5179L29.1844 26.9465C29.1606 27.2441 29.0384 27.4941 28.8178 27.6965C28.5973 27.8989 28.338 28.0001 28.0399 28.0001H27.9505C27.6405 27.9763 27.3812 27.8423 27.1726 27.5983C26.964 27.3542 26.8716 27.0774 26.8954 26.7679L27.4677 19.3394C27.4915 19.0298 27.6256 18.7709 27.87 18.5626C28.1144 18.3542 28.3916 18.262 28.7016 18.2858C29.0115 18.3096 29.2708 18.4435 29.4795 18.6876C29.6881 18.9316 29.7805 19.2084 29.7567 19.5179Z" fill="url(#paint4_linear_188_241)"/>
</g>
<defs>
<linearGradient id="paint0_linear_188_241" x1="10.9297" y1="7.46743" x2="16.1068" y2="7.46743" gradientUnits="userSpaceOnUse">
<stop stop-color="#A6A6A6"/>
<stop offset="0.501532" stop-color="white"/>
<stop offset="1" stop-color="#A3A3A3"/>
</linearGradient>
<linearGradient id="paint1_linear_188_241" x1="4.98584" y1="13.4032" x2="10.163" y2="13.4032" gradientUnits="userSpaceOnUse">
<stop stop-color="#A6A6A6"/>
<stop offset="0.501532" stop-color="white"/>
<stop offset="1" stop-color="#A3A3A3"/>
</linearGradient>
<linearGradient id="paint2_linear_188_241" x1="17.6406" y1="14.9352" x2="22.8178" y2="14.9352" gradientUnits="userSpaceOnUse">
<stop stop-color="#A6A6A6"/>
<stop offset="0.501532" stop-color="white"/>
<stop offset="1" stop-color="#A3A3A3"/>
</linearGradient>
<linearGradient id="paint3_linear_188_241" x1="26.0776" y1="10.5311" x2="31.2548" y2="10.5311" gradientUnits="userSpaceOnUse">
<stop stop-color="#A6A6A6"/>
<stop offset="0.501532" stop-color="white"/>
<stop offset="1" stop-color="#A3A3A3"/>
</linearGradient>
<linearGradient id="paint4_linear_188_241" x1="30.3574" y1="32.0001" x2="31.27" y2="13.7491" gradientUnits="userSpaceOnUse">
<stop stop-color="#76B900"/>
<stop offset="1" stop-color="#9FBA02"/>
</linearGradient>
<clipPath id="clip0_188_241">
<rect width="36.6236" height="32" fill="white"/>
</clipPath>
</defs>
</svg>
