<svg width="81" height="69" viewBox="0 0 81 69" fill="none" xmlns="http://www.w3.org/2000/svg">
<path fill-rule="evenodd" clip-rule="evenodd" d="M28.2221 62.6454C16.3274 53.5315 0.0839844 38.4763 0.0839844 24.2415C0.0839844 0.460366 22.3132 -8.41918 40.5007 9.94616C58.6882 -8.41918 80.9173 0.460366 80.9173 24.2415C80.9173 38.4763 64.6698 53.5315 52.7792 62.6454C47.3957 66.7679 44.704 68.8332 40.5007 68.8332C36.2973 68.8332 33.6056 66.772 28.2221 62.6454ZM58.6882 13.2603C59.4921 13.2603 60.2631 13.5797 60.8316 14.1482C61.4 14.7166 61.7194 15.4876 61.7194 16.2916V21.3437H66.7715C67.5754 21.3437 68.3464 21.663 68.9149 22.2315C69.4834 22.8 69.8027 23.571 69.8027 24.3749C69.8027 25.1788 69.4834 25.9499 68.9149 26.5183C68.3464 27.0868 67.5754 27.4062 66.7715 27.4062H61.7194V32.4582C61.7194 33.2622 61.4 34.0332 60.8316 34.6017C60.2631 35.1701 59.4921 35.4895 58.6882 35.4895C57.8842 35.4895 57.1132 35.1701 56.5447 34.6017C55.9763 34.0332 55.6569 33.2622 55.6569 32.4582V27.4062H50.6048C49.8009 27.4062 49.0299 27.0868 48.4614 26.5183C47.8929 25.9499 47.5736 25.1788 47.5736 24.3749C47.5736 23.571 47.8929 22.8 48.4614 22.2315C49.0299 21.663 49.8009 21.3437 50.6048 21.3437H55.6569V16.2916C55.6569 15.4876 55.9763 14.7166 56.5447 14.1482C57.1132 13.5797 57.8842 13.2603 58.6882 13.2603Z" fill="url(#paint0_linear_73_985)"/>
<defs>
<linearGradient id="paint0_linear_73_985" x1="40.5007" y1="0.124512" x2="40.5007" y2="68.8332" gradientUnits="userSpaceOnUse">
<stop stop-color="#E7FFBC"/>
<stop offset="1" stop-color="#76B900"/>
</linearGradient>
</defs>
</svg>
