<svg width="97" height="97" viewBox="0 0 97 97" fill="none" xmlns="http://www.w3.org/2000/svg">
<path d="M19.8048 69.1121C15.9652 65.0705 13.0525 60.5909 11.0667 55.6736C9.08093 50.7562 8.08668 45.6705 8.08399 40.4163C8.0813 35.1621 9.07555 30.0764 11.0667 25.159C13.0579 20.2416 15.9706 15.7621 19.8048 11.7205L24.6548 16.5705C21.4215 19.8038 18.9965 23.5262 17.3798 27.7376C15.7632 31.949 14.9548 36.1752 14.9548 40.4163C14.9548 44.6573 15.7632 48.8849 17.3798 53.099C18.9965 57.3131 21.4215 61.0342 24.6548 64.2621L19.8048 69.1121ZM29.5048 59.4121C26.8777 56.785 24.8744 53.8212 23.4949 50.5205C22.1153 47.2198 21.4242 43.8517 21.4215 40.4163C21.4188 36.9809 22.1099 33.6128 23.4949 30.3121C24.8798 27.0114 26.8831 24.0475 29.5048 21.4205L34.3548 26.2705C32.334 28.0892 30.8184 30.2448 29.808 32.7371C28.7975 35.2295 28.2923 37.7892 28.2923 40.4163C28.2923 42.8413 28.7975 45.3 29.808 47.7923C30.8184 50.2847 32.334 52.5413 34.3548 54.5621L29.5048 59.4121ZM28.2923 88.9163L41.9329 47.9944C40.8552 47.0514 39.9956 45.9399 39.3544 44.66C38.7131 43.3802 38.3938 41.9656 38.3965 40.4163C38.3965 37.5871 39.3732 35.1958 41.3267 33.2423C43.2802 31.2889 45.6715 30.3121 48.5007 30.3121C51.3298 30.3121 53.7211 31.2889 55.6746 33.2423C57.6281 35.1958 58.6048 37.5871 58.6048 40.4163C58.6048 41.9656 58.2842 43.3802 57.6429 44.66C57.0016 45.9399 56.1435 47.0514 55.0684 47.9944L68.709 88.9163H60.6257L57.9986 80.833H39.1038L36.3757 88.9163H28.2923ZM41.7309 72.7496H55.2705L48.5007 52.5413L41.7309 72.7496ZM67.4965 59.4121L62.6465 54.5621C64.6673 52.7434 66.183 50.5878 67.1934 48.0955C68.2038 45.6031 68.709 43.0434 68.709 40.4163C68.709 37.9913 68.2038 35.5326 67.1934 33.0403C66.183 30.5479 64.6673 28.2913 62.6465 26.2705L67.4965 21.4205C70.1236 24.0475 72.077 27.0114 73.3569 30.3121C74.6368 33.6128 75.3778 36.9809 75.5798 40.4163C75.5798 43.8517 74.8901 47.2198 73.5105 50.5205C72.1309 53.8212 70.1263 56.785 67.4965 59.4121ZM77.1965 69.1121L72.3465 64.2621C75.5798 61.0288 78.0048 57.3078 79.6215 53.099C81.2382 48.8903 82.0465 44.6627 82.0465 40.4163C82.0465 36.1698 81.2382 31.9436 79.6215 27.7376C78.0048 23.5316 75.5798 19.8092 72.3465 16.5705L77.1965 11.7205C81.0361 15.7621 83.9501 20.2416 85.9386 25.159C87.9271 30.0764 88.92 35.1621 88.9173 40.4163C88.9146 45.6705 87.9716 50.7562 86.0882 55.6736C84.2047 60.5909 81.2409 65.0705 77.1965 69.1121Z" fill="url(#paint0_linear_73_979)"/>
<defs>
<linearGradient id="paint0_linear_73_979" x1="48.5007" y1="11.7205" x2="48.5007" y2="88.9163" gradientUnits="userSpaceOnUse">
<stop stop-color="#E7FFBC"/>
<stop offset="1" stop-color="#76B900"/>
</linearGradient>
</defs>
</svg>
